<?xml version="1.0" encoding="utf-8"?>
<!-- Generator: Adobe Illustrator 27.5.0, SVG Export Plug-In . SVG Version: 6.00 Build 0)  -->
<svg version="1.1" id="Layer_1" xmlns="http://www.w3.org/2000/svg" xmlns:xlink="http://www.w3.org/1999/xlink" x="0px" y="0px"
	 viewBox="0 0 7000 4000" style="enable-background:new 0 0 7000 4000;" xml:space="preserve">
<g>
	<rect style="fill-rule:evenodd;clip-rule:evenodd;fill:#E6E6E5;" width="7000" height="4000"/>
	<path style="opacity:0.38;fill-rule:evenodd;clip-rule:evenodd;fill:#FFFFFF;" d="M0,0v4000h2203.419
		c107.589-685.573,192.55-2103.09-893.319-2303.672C444.873,1536.505,443.876,668.054,581.031,0H0z"/>
	<path style="opacity:0.46;fill-rule:evenodd;clip-rule:evenodd;fill:#FFFFFF;" d="M0,0v4000h1927.471
		c62.618-731.785-16.878-1775.401-936.939-1945.353C-41.911,1863.934,156.205,664.219,351.225,0H0z"/>
	<path style="opacity:0.56;fill-rule:evenodd;clip-rule:evenodd;fill:#FFFFFF;" d="M513.208,2306.421
		C287.732,2264.771,120.943,2174.994,0,2053.182V4000h1464.739C1485.027,3300.528,1331.849,2457.64,513.208,2306.421"/>
	<path style="opacity:0.73;fill-rule:evenodd;clip-rule:evenodd;fill:#FFFFFF;" d="M1310.1,1696.328
		C2395.969,1896.91,2311.008,3314.427,2203.419,4000h1105.482c112.492-630.688,271.749-2200.15-875.163-2412.01
		C1614.601,1436.682,1570.073,650.236,1684.03,0h-1103C443.876,668.054,444.873,1536.505,1310.1,1696.328"/>
	<path style="opacity:0.38;fill-rule:evenodd;clip-rule:evenodd;fill:#FFFFFF;" d="M7000,0v4000H5943.574
		c-51.583-685.573-92.317-2103.09,428.305-2303.672C6786.71,1536.505,6787.187,668.054,6721.427,0H7000z"/>
	<path style="opacity:0.46;fill-rule:evenodd;clip-rule:evenodd;fill:#FFFFFF;" d="M7000,0v4000h-924.122
		c-30.021-731.785,8.093-1775.401,449.215-1945.353C7020.097,1863.934,6925.11,664.219,6831.608,0H7000z"/>
	<path style="opacity:0.56;fill-rule:evenodd;clip-rule:evenodd;fill:#FFFFFF;" d="M6753.943,2306.421
		c108.105-41.65,188.074-131.427,246.057-253.239V4000h-702.263C6288.008,3300.528,6361.45,2457.64,6753.943,2306.421"/>
	<path style="opacity:0.73;fill-rule:evenodd;clip-rule:evenodd;fill:#FFFFFF;" d="M6371.879,1696.328
		C5851.257,1896.91,5891.992,3314.427,5943.574,4000h-530.017c-53.935-630.688-130.29-2200.15,419.597-2412.01
		C6225.882,1436.682,6247.232,650.236,6192.598,0h528.829C6787.187,668.054,6786.71,1536.505,6371.879,1696.328"/>
</g>
</svg>
